<svg width="32" height="32" viewBox="0 0 32 32" fill="none" xmlns="http://www.w3.org/2000/svg">
  <!-- Background Circle with Gradient -->
  <circle cx="16" cy="16" r="16" fill="url(#gradient)"/>

  <!-- Upward Trending Arrow/Line representing Yield Growth -->
  <path d="M8 20L12 16L16 18L20 14L24 12" stroke="white" stroke-width="2.5" stroke-linecap="round" stroke-linejoin="round"/>
  <path d="M20 12H24V16" stroke="white" stroke-width="2.5" stroke-linecap="round" stroke-linejoin="round"/>

  <!-- Small Bitcoin Symbol Integration -->
  <circle cx="16" cy="10" r="3" fill="white" opacity="0.9"/>
  <path d="M15.5 8.5V11.5M16.5 8.5V11.5M14.8 9.5H17.2C17.6 9.5 17.8 9.7 17.8 10C17.8 10.3 17.6 10.5 17.2 10.5H14.8M14.8 10.5H17.2C17.6 10.5 17.8 10.7 17.8 11C17.8 11.3 17.6 11.5 17.2 11.5H14.8" stroke="#F7931A" stroke-width="0.8" stroke-linecap="round"/>

  <!-- Gradient Definition -->
  <defs>
    <linearGradient id="gradient" x1="0" y1="0" x2="32" y2="32" gradientUnits="userSpaceOnUse">
      <stop stop-color="#F7931A"/>
      <stop offset="0.5" stop-color="#FF8C00"/>
      <stop offset="1" stop-color="#FFA500"/>
    </linearGradient>
  </defs>
</svg>
